<svg width="181" height="154" viewBox="0 0 181 154" fill="none" xmlns="http://www.w3.org/2000/svg">
<circle cx="91" cy="77" r="77" fill="#F9F9F9"/>
<rect x="43" y="43" width="95" height="67" rx="8" fill="#DDDDDD"/>
<circle cx="69.5" cy="67.5" r="9.5" fill="white"/>
<path d="M69.5 80C62.5498 80 56.7417 84.7213 55.3284 91.0234C54.9659 92.6401 56.3431 94 58 94H81C82.6569 94 84.0341 92.6401 83.6716 91.0234C82.2583 84.7213 76.4502 80 69.5 80Z" fill="white"/>
<path d="M95 65H113.5" stroke="white" stroke-width="2" stroke-linecap="round" stroke-linejoin="round"/>
<path d="M95 73H122" stroke="white" stroke-width="2" stroke-linecap="round" stroke-linejoin="round"/>
<path d="M95 81H110" stroke="white" stroke-width="2" stroke-linecap="round" stroke-linejoin="round"/>
<path d="M148.383 64.2528C147.948 64.5937 147.872 65.2223 148.213 65.6568L153.769 72.7377C154.109 73.1722 154.738 73.2481 155.173 72.9072C155.607 72.5663 155.683 71.9377 155.342 71.5031L150.404 65.2091L156.698 60.271C157.133 59.9301 157.209 59.3015 156.868 58.867C156.527 58.4325 155.898 58.3566 155.464 58.6975L148.383 64.2528ZM179 74.5C179 74.8469 178.738 75.4285 177.618 76.1932C176.539 76.9299 174.882 77.68 172.653 78.416C168.209 79.8836 161.724 81.2204 153.648 82.3484C137.51 84.6023 115.183 86 90.5 86V88C115.246 88 137.67 86.5994 153.924 84.3292C162.044 83.1951 168.667 81.8385 173.28 80.3151C175.58 79.5557 177.44 78.7359 178.745 77.8451C180.009 76.9824 181 75.8789 181 74.5H179ZM90.5 86C65.8166 86 43.49 84.6023 27.3523 82.3484C19.2759 81.2204 12.7914 79.8836 8.34691 78.416C6.11791 77.68 4.46144 76.9299 3.38206 76.1932C2.26162 75.4285 2 74.8469 2 74.5H0C0 75.8789 0.990579 76.9824 2.25459 77.8451C3.55964 78.7359 5.41986 79.5557 7.7198 80.3151C12.3332 81.8385 18.9557 83.1951 27.0756 84.3292C43.3305 86.5994 65.7539 88 90.5 88V86ZM148.88 66.0323C158.352 67.1758 166.037 68.5878 171.334 70.1699C173.989 70.9632 175.986 71.7825 177.298 72.5985C178.673 73.4536 179 74.1143 179 74.5H181C181 72.9956 179.825 71.8152 178.354 70.9002C176.82 69.9462 174.627 69.0664 171.906 68.2536C166.449 66.6236 158.634 65.1954 149.12 64.0468L148.88 66.0323ZM2 74.5C2 74.1143 2.32718 73.4536 3.70198 72.5985C5.01397 71.7825 7.01067 70.9632 9.66645 70.1699C14.9632 68.5878 22.6483 67.1758 32.1199 66.0323L31.8801 64.0468C22.3656 65.1954 14.5508 66.6236 9.09402 68.2536C6.37306 69.0664 4.17964 69.9462 2.64569 70.9002C1.17456 71.8152 0 72.9956 0 74.5H2Z" fill="#FF9D00"/>
</svg>
