<svg width="375" height="240" viewBox="0 0 375 240" fill="none" xmlns="http://www.w3.org/2000/svg">
<path d="M128.693 150.07C131.004 146.346 132.128 144.535 133.326 142.935C141.169 132.457 153.104 125.816 166.142 124.675C168.133 124.501 170.264 124.5 174.648 124.5C183.78 124.5 188.229 124.503 191.703 125.04C215.181 128.671 232.033 149.583 230.588 173.297C230.375 176.806 229.432 181.153 227.49 190.077L223.808 207C222.19 214.434 221.419 217.92 219.811 220.649C217.347 224.834 213.444 227.979 208.831 229.497C205.822 230.488 202.252 230.5 194.645 230.5H137.385C127.506 230.5 120.166 230.499 114.596 229.988C109.019 229.477 105.39 228.464 102.832 226.568C98.207 223.14 95.2834 217.886 94.8087 212.149C94.5461 208.975 95.5991 205.358 98.1043 200.349C100.606 195.347 104.475 189.109 109.683 180.714L128.693 150.07Z" fill="url(#paint0_linear_1247_9851)"/>
<path d="M128.693 150.07C131.004 146.346 132.128 144.535 133.326 142.935C141.169 132.457 153.104 125.816 166.142 124.675C168.133 124.501 170.264 124.5 174.648 124.5C183.78 124.5 188.229 124.503 191.703 125.04C215.181 128.671 232.033 149.583 230.588 173.297C230.375 176.806 229.432 181.153 227.49 190.077L223.808 207C222.19 214.434 221.419 217.92 219.811 220.649C217.347 224.834 213.444 227.979 208.831 229.497C205.822 230.488 202.252 230.5 194.645 230.5H137.385C127.506 230.5 120.166 230.499 114.596 229.988C109.019 229.477 105.39 228.464 102.832 226.568C98.207 223.14 95.2834 217.886 94.8087 212.149C94.5461 208.975 95.5991 205.358 98.1043 200.349C100.606 195.347 104.475 189.109 109.683 180.714L128.693 150.07Z" fill="url(#paint1_linear_1247_9851)"/>
<path d="M128.693 150.07C131.004 146.346 132.128 144.535 133.326 142.935C141.169 132.457 153.104 125.816 166.142 124.675C168.133 124.501 170.264 124.5 174.648 124.5C183.78 124.5 188.229 124.503 191.703 125.04C215.181 128.671 232.033 149.583 230.588 173.297C230.375 176.806 229.432 181.153 227.49 190.077L223.808 207C222.19 214.434 221.419 217.92 219.811 220.649C217.347 224.834 213.444 227.979 208.831 229.497C205.822 230.488 202.252 230.5 194.645 230.5H137.385C127.506 230.5 120.166 230.499 114.596 229.988C109.019 229.477 105.39 228.464 102.832 226.568C98.207 223.14 95.2834 217.886 94.8087 212.149C94.5461 208.975 95.5991 205.358 98.1043 200.349C100.606 195.347 104.475 189.109 109.683 180.714L128.693 150.07Z" fill="url(#paint2_radial_1247_9851)"/>
<path d="M128.693 150.07C131.004 146.346 132.128 144.535 133.326 142.935C141.169 132.457 153.104 125.816 166.142 124.675C168.133 124.501 170.264 124.5 174.648 124.5C183.78 124.5 188.229 124.503 191.703 125.04C215.181 128.671 232.033 149.583 230.588 173.297C230.375 176.806 229.432 181.153 227.49 190.077L223.808 207C222.19 214.434 221.419 217.92 219.811 220.649C217.347 224.834 213.444 227.979 208.831 229.497C205.822 230.488 202.252 230.5 194.645 230.5H137.385C127.506 230.5 120.166 230.499 114.596 229.988C109.019 229.477 105.39 228.464 102.832 226.568C98.207 223.14 95.2834 217.886 94.8087 212.149C94.5461 208.975 95.5991 205.358 98.1043 200.349C100.606 195.347 104.475 189.109 109.683 180.714L128.693 150.07Z" fill="url(#paint3_radial_1247_9851)"/>
<path d="M128.693 150.07C131.004 146.346 132.128 144.535 133.326 142.935C141.169 132.457 153.104 125.816 166.142 124.675C168.133 124.501 170.264 124.5 174.648 124.5C183.78 124.5 188.229 124.503 191.703 125.04C215.181 128.671 232.033 149.583 230.588 173.297C230.375 176.806 229.432 181.153 227.49 190.077L223.808 207C222.19 214.434 221.419 217.92 219.811 220.649C217.347 224.834 213.444 227.979 208.831 229.497C205.822 230.488 202.252 230.5 194.645 230.5H137.385C127.506 230.5 120.166 230.499 114.596 229.988C109.019 229.477 105.39 228.464 102.832 226.568C98.207 223.14 95.2834 217.886 94.8087 212.149C94.5461 208.975 95.5991 205.358 98.1043 200.349C100.606 195.347 104.475 189.109 109.683 180.714L128.693 150.07Z" stroke="var(--secondary-color)" stroke-width="2"/>
<g filter="url(#filter0_b_1247_9851)">
<path fill-rule="evenodd" clip-rule="evenodd" d="M375 0H0V240H375V0ZM185.895 229.151C246.335 229.151 295.332 180.154 295.332 119.713C295.332 59.2724 246.335 10.2755 185.895 10.2755C125.454 10.2755 76.4569 59.2724 76.4569 119.713C76.4569 180.154 125.454 229.151 185.895 229.151Z" fill="black" fill-opacity="0.52"/>
</g>
<path fill-rule="evenodd" clip-rule="evenodd" d="M186 231.5C247.856 231.5 298 181.356 298 119.5C298 57.6441 247.856 7.5 186 7.5C124.144 7.5 74 57.6441 74 119.5C74 181.356 124.144 231.5 186 231.5ZM185.895 229.444C246.497 229.444 295.625 180.316 295.625 119.713C295.625 59.1104 246.497 9.98216 185.895 9.98216C125.292 9.98216 76.1636 59.1104 76.1636 119.713C76.1636 180.316 125.292 229.444 185.895 229.444Z" fill="white" fill-opacity="0.2"/>
<circle cx="185.895" cy="119.713" r="108.508" stroke="white" stroke-width="1.86"/>
<circle cx="185.5" cy="98" r="33.5" fill="url(#paint4_radial_1247_9851)"/>
<circle cx="185.5" cy="98" r="33.5" fill="url(#paint5_radial_1247_9851)"/>
<circle cx="185.5" cy="98" r="33.5" stroke="var(--secondary-color)" stroke-width="2"/>
<circle cx="179" cy="85.5" r="3" fill="var(--secondary-color)"/>
<circle cx="192" cy="85.5" r="3" fill="var(--secondary-color)"/>
<path d="M197.021 96.5206C190.382 103.16 180.639 103.16 174 96.5207" stroke="var(--secondary-color)" stroke-width="2" stroke-linecap="round"/>
<path d="M153 52.5H139C136.239 52.5 134 54.7386 134 57.5V71.5" stroke="white" stroke-width="3" stroke-linecap="round"/>
<path d="M237 71.5L237 57.5C237 54.7386 234.761 52.5 232 52.5L218 52.5" stroke="white" stroke-width="3" stroke-linecap="round"/>
<path d="M218 150.5L232 150.5C234.761 150.5 237 148.261 237 145.5L237 131.5" stroke="white" stroke-width="3" stroke-linecap="round"/>
<path d="M134 131.5L134 145.5C134 148.261 136.239 150.5 139 150.5L153 150.5" stroke="white" stroke-width="3" stroke-linecap="round"/>
<defs>
<filter id="filter0_b_1247_9851" x="-14" y="-14" width="403" height="268" filterUnits="userSpaceOnUse" color-interpolation-filters="sRGB">
<feFlood flood-opacity="0" result="BackgroundImageFix"/>
<feGaussianBlur in="BackgroundImageFix" stdDeviation="7"/>
<feComposite in2="SourceAlpha" operator="in" result="effect1_backgroundBlur_1247_9851"/>
<feBlend mode="normal" in="SourceGraphic" in2="effect1_backgroundBlur_1247_9851" result="shape"/>
</filter>
<linearGradient id="paint0_linear_1247_9851" x1="186" y1="123.5" x2="186" y2="231.5" gradientUnits="userSpaceOnUse">
<stop stop-color="white"/>
<stop offset="1" stop-color="var(--primary-color)"/>
</linearGradient>
<linearGradient id="paint1_linear_1247_9851" x1="186" y1="123.5" x2="186" y2="231.5" gradientUnits="userSpaceOnUse">
<stop stop-color="var(--primary-color)" stop-opacity="0"/>
<stop offset="1" stop-color="var(--secondary-color)"/>
</linearGradient>
<radialGradient id="paint2_radial_1247_9851" cx="0" cy="0" r="1" gradientUnits="userSpaceOnUse" gradientTransform="translate(184 127.5) rotate(101.508) scale(85.213 119.535)">
<stop stop-color="var(--primary-color)"/>
<stop offset="1" stop-color="var(--secondary-color)" stop-opacity="0"/>
</radialGradient>
<radialGradient id="paint3_radial_1247_9851" cx="0" cy="0" r="1" gradientUnits="userSpaceOnUse" gradientTransform="translate(186 123.5) rotate(90) scale(40 49.6296)">
<stop stop-color="var(--secondary-color)"/>
<stop offset="1" stop-color="var(--primary-color)" stop-opacity="0"/>
</radialGradient>
<radialGradient id="paint4_radial_1247_9851" cx="0" cy="0" r="1" gradientUnits="userSpaceOnUse" gradientTransform="translate(185.5 92.5) rotate(90) scale(32)">
<stop stop-color="white"/>
<stop offset="1" stop-color="var(--primary-color)"/>
</radialGradient>
<radialGradient id="paint5_radial_1247_9851" cx="0" cy="0" r="1" gradientUnits="userSpaceOnUse" gradientTransform="translate(185.5 65.5) rotate(90) scale(70)">
<stop offset="0.692708" stop-color="var(--secondary-color)" stop-opacity="0"/>
<stop offset="1"/>
<stop offset="1"/>
</radialGradient>
</defs>
</svg>
