<svg width="154" height="187" viewBox="0 0 154 187" fill="none" xmlns="http://www.w3.org/2000/svg">
<circle cx="77" cy="90" r="77" fill="#F9F9F9"/>
<rect x="25" width="103" height="187" rx="16" fill="#DDDDDD"/>
<rect x="33" y="8" width="87" height="171" rx="9" fill="white"/>
<ellipse cx="76.5" cy="68" rx="27.5" ry="27" fill="#DDDDDD"/>
<ellipse cx="76.5" cy="166" rx="9.5" ry="9" fill="white"/>
<path d="M76.5 102C51.371 102 31 121.699 31 146V178C31 179.657 32.3431 181 34 181H119C120.657 181 122 179.657 122 178V146C122 121.699 101.629 102 76.5 102Z" fill="#DDDDDD"/>
<path d="M86 66C85.3667 69.3333 81.7467 74 76.5 74C71.2533 74 67.6333 69.3333 67 66" stroke="black" stroke-linecap="round" stroke-linejoin="round"/>
<rect x="72.5" y="60.5" width="1" height="3" rx="0.5" fill="#D9D9D9" stroke="black" stroke-linejoin="round"/>
<rect x="79.5" y="60.5" width="1" height="3" rx="0.5" fill="#D9D9D9" stroke="black" stroke-linejoin="round"/>
</svg>
