<svg width="28" height="28" viewBox="0 0 28 28" fill="none" xmlns="http://www.w3.org/2000/svg">
<path d="M23.3337 14.3202C23.3337 14.7632 23.0046 15.1293 22.5775 15.1872L22.4587 15.1952L4.95874 15.1952C4.47549 15.1952 4.08374 14.8034 4.08374 14.3202C4.08374 13.8772 4.41292 13.5111 4.84001 13.4532L4.95874 13.4452L22.4587 13.4452C22.942 13.4452 23.3337 13.8369 23.3337 14.3202Z" fill="white"/>
<path d="M12.6339 20.7285C12.9764 21.0695 12.9776 21.6235 12.6366 21.9659C12.3266 22.2772 11.8406 22.3065 11.4975 22.0531L11.3992 21.9686L4.34082 14.9406C4.02858 14.6297 4.00017 14.1419 4.25562 13.7988L4.34077 13.7006L11.3991 6.67138C11.7415 6.33038 12.2955 6.33153 12.6365 6.67395C12.9465 6.98523 12.9738 7.4714 12.7189 7.81342L12.634 7.91138L6.19861 14.3209L12.6339 20.7285Z" fill="white"/>
</svg>
