<svg width="183" height="154" viewBox="0 0 183 154" fill="none" xmlns="http://www.w3.org/2000/svg">
<circle cx="92" cy="77" r="77" fill="#F9EDCE"/>
<rect x="48.0862" y="40.907" width="94" height="66" rx="7.5" transform="rotate(5.81632 48.0862 40.907)" fill="white" stroke="black"/>
<circle cx="71.5201" cy="67.4182" r="9.5" transform="rotate(5.81632 71.5201 67.4182)" fill="#E6E6E6"/>
<path d="M70.2534 79.8538C63.339 79.1495 57.0823 83.2579 55.0377 89.3844C54.5131 90.956 55.7455 92.4484 57.3938 92.6163L80.2754 94.9472C81.9238 95.1151 83.4318 93.9018 83.2349 92.2566C82.4676 85.8438 77.1678 80.5582 70.2534 79.8538Z" fill="#E6E6E6"/>
<path d="M97.1422 67.5153L115.547 69.39" stroke="#E6E6E6" stroke-width="2" stroke-linecap="round" stroke-linejoin="round"/>
<path d="M96.3315 75.474L123.193 78.2102" stroke="#E6E6E6" stroke-width="2" stroke-linecap="round" stroke-linejoin="round"/>
<path d="M95.5208 83.4329L110.444 84.953" stroke="#E6E6E6" stroke-width="2" stroke-linecap="round" stroke-linejoin="round"/>
<path d="M148.878 63.3441C147.964 63.9635 147.725 65.207 148.344 66.1215L158.438 81.0251C159.057 81.9396 160.301 82.1789 161.215 81.5595C162.13 80.9401 162.369 79.6966 161.75 78.782L152.777 65.5344L166.025 56.5622C166.94 55.9428 167.179 54.6993 166.559 53.7847C165.94 52.8701 164.697 52.6309 163.782 53.2503L148.878 63.3441ZM33.3779 66.964C34.4626 66.7553 35.1727 65.7068 34.964 64.6221C34.7553 63.5374 33.7068 62.8273 32.6221 63.036L33.3779 66.964ZM179 80.0778C179 80.8023 178.679 81.6843 177.709 82.7393C176.729 83.8051 175.188 84.9294 173.035 86.0626C168.733 88.3268 162.376 90.4266 154.352 92.2127C138.336 95.7777 116.114 98 91.5 98V102C116.316 102 138.844 99.7626 155.221 96.1171C163.393 94.298 170.143 92.1049 174.898 89.6023C177.274 88.352 179.249 86.9743 180.654 85.4464C182.069 83.9076 183 82.104 183 80.0778H179ZM91.5 98C66.8865 98 44.6641 95.7777 28.6485 92.2127C20.6245 90.4266 14.2673 88.3268 9.96479 86.0626C7.81153 84.9294 6.27051 83.8051 5.2907 82.7393C4.32083 81.6843 4 80.8023 4 80.0778H0C0 82.104 0.931369 83.9076 2.34594 85.4464C3.75057 86.9743 5.72623 88.352 8.10192 89.6023C12.8573 92.1049 19.6071 94.298 27.7794 96.1171C44.1564 99.7626 66.684 102 91.5 102V98ZM149.622 66.964C159.043 68.7766 166.604 71.0007 171.76 73.4554C174.343 74.685 176.217 75.9236 177.418 77.1144C178.615 78.3004 179 79.287 179 80.0778H183C183 77.8563 181.884 75.9087 180.234 74.2736C178.589 72.6432 176.273 71.174 173.479 69.8438C167.882 67.179 159.943 64.8765 150.378 63.036L149.622 66.964ZM4 80.0778C4 79.287 4.3854 78.3004 5.58184 77.1144C6.78306 75.9236 8.65723 74.685 11.2399 73.4554C16.396 71.0007 23.9573 68.7766 33.3779 66.964L32.6221 63.036C23.0566 64.8765 15.118 67.179 9.52054 69.8438C6.7265 71.174 4.41055 72.6432 2.76584 74.2736C1.11635 75.9087 0 77.8563 0 80.0778H4Z" fill="#ECC337"/>
</svg>
