<svg width="154" height="207" viewBox="0 0 154 207" fill="none" xmlns="http://www.w3.org/2000/svg">
<circle cx="77" cy="130" r="77" fill="#F9EDCE"/>
<rect x="21.6764" y="4.76234" width="102" height="186" rx="15.5" transform="rotate(-2.38351 21.6764 4.76234)" fill="#E6E6E6" stroke="black"/>
<rect x="29.4818" y="11.944" width="87" height="171" rx="10" transform="rotate(-2.38351 29.4818 11.944)" fill="white"/>
<path d="M76.8535 104.054C51.7462 105.099 32.2121 125.628 33.2227 149.908L34.5535 181.88C34.6224 183.535 36.0203 184.822 37.6757 184.753L122.602 181.218C124.258 181.149 125.544 179.751 125.475 178.096L124.144 146.123C123.133 121.844 101.961 103.008 76.8535 104.054Z" fill="#E6E6E6"/>
<rect x="30.0022" y="12.4227" width="86" height="170" rx="8.5" transform="rotate(-2.38351 30.0022 12.4227)" stroke="black"/>
<ellipse cx="75.4394" cy="70.083" rx="27.5" ry="27" transform="rotate(-2.38351 75.4394 70.083)" fill="#ECC337"/>
<path d="M88.5638 67.0926C87.8727 71.7869 83.0862 78.5179 75.7553 78.823C68.4244 79.1282 63.095 72.8183 62.0162 68.1976" stroke="black" stroke-linecap="round" stroke-linejoin="round"/>
<rect x="69.1738" y="60.0022" width="1.7969" height="4.5938" rx="0.89845" transform="rotate(-2.38351 69.1738 60.0022)" fill="black" stroke="black" stroke-linejoin="round"/>
<rect x="78.9546" y="59.5951" width="1.7969" height="4.5938" rx="0.89845" transform="rotate(-2.38351 78.9546 59.5951)" fill="black" stroke="black" stroke-linejoin="round"/>
</svg>
