<svg width="180" height="154" viewBox="0 0 180 154" fill="none" xmlns="http://www.w3.org/2000/svg">
<circle cx="91" cy="77" r="77" fill="#F9EDCE"/>
<circle cx="98" cy="39" r="16" fill="#ECC337"/>
<path d="M91.7391 39.0994L96.2925 43.8696L104.261 35.5217" stroke="white" stroke-width="2" stroke-linecap="round" stroke-linejoin="round"/>
<rect x="0.668865" y="27.3282" width="83" height="111" rx="7.5" transform="rotate(-8.59828 0.668865 27.3282)" fill="white" stroke="black"/>
<rect x="6.22351" y="31.9044" width="73.3839" height="100.29" rx="3" transform="rotate(-8.59828 6.22351 31.9044)" fill="#E6E6E6"/>
<circle cx="50" cy="75.9999" r="19" transform="rotate(-8.59828 50 75.9999)" stroke="white" stroke-width="2"/>
<path d="M61.7917 60.3439C58.7535 64.38 54.1935 67.2749 48.8038 68.0898C43.4142 68.9048 38.2021 67.4874 34.1064 64.53" stroke="white" stroke-width="2"/>
<path d="M38.2081 91.656C41.2464 87.6199 45.8064 84.725 51.196 83.91C56.5857 83.0951 61.7978 84.5124 65.8934 87.4698" stroke="white" stroke-width="2"/>
<path d="M31.2135 78.8406L68.7864 73.1594" stroke="white" stroke-width="2" stroke-linecap="round" stroke-linejoin="round"/>
<path d="M59.8875 74.5049C60.6929 79.8315 60.2251 84.7848 58.8666 88.4747C57.4938 92.2032 55.3167 94.412 52.8405 94.7864C50.3643 95.1608 47.6315 93.6944 45.2178 90.5385C42.8291 87.4152 40.9177 82.8216 40.1123 77.495C39.3069 72.1683 39.7747 67.215 41.1332 63.5251C42.506 59.7967 44.6831 57.5879 47.1593 57.2135C49.6355 56.839 52.3683 58.3054 54.782 61.4613C57.1707 64.5846 59.0821 69.1782 59.8875 74.5049Z" stroke="white" stroke-width="2"/>
<path d="M47.1593 57.2135L52.8405 94.7864" stroke="white" stroke-width="2" stroke-linecap="round" stroke-linejoin="round"/>
<rect x="86.374" y="51.5687" width="94" height="66" rx="7.5" transform="rotate(8.54379 86.374 51.5687)" fill="white" stroke="black"/>
<circle cx="108.52" cy="79.1651" r="9.5" transform="rotate(8.54379 108.52 79.1651)" fill="#E6E6E6"/>
<path d="M106.663 91.5264C99.7897 90.4938 93.3447 94.2999 91.0108 100.322C90.4121 101.867 91.5721 103.416 93.2105 103.663L115.955 107.08C117.594 107.326 119.158 106.186 119.039 104.533C118.578 98.0908 113.536 92.5589 106.663 91.5264Z" fill="#E6E6E6"/>
<path d="M134.108 80.4812L152.403 83.2297" stroke="#E6E6E6" stroke-width="2" stroke-linecap="round" stroke-linejoin="round"/>
<path d="M132.92 88.3925L159.62 92.4037" stroke="#E6E6E6" stroke-width="2" stroke-linecap="round" stroke-linejoin="round"/>
<path d="M131.731 96.3037L146.565 98.5322" stroke="#E6E6E6" stroke-width="2" stroke-linecap="round" stroke-linejoin="round"/>
</svg>
