<svg version="1.0" xmlns="http://www.w3.org/2000/svg" width="269.333" height="269.333" viewBox="0 0 202 202">
    <path fill="#fff" d="M11.5 1.9c-4.8 2.2-7.9 5.4-10 10.3C.2 15.5 0 26.4 0 100.7c0 52.6.4 86.1 1 88.3.5 2 2.4 5 4.2 6.7 6.8 6.6 2.1 6.3 95.5 6.3 52.6 0 86.1-.4 88.3-1 2-.5 5-2.4 6.7-4.2 6.6-6.8 6.3-2.1 6.3-95.5 0-52.6-.4-86.1-1-88.3-.5-2-2.4-5-4.2-6.7-6.8-6.6-2-6.3-96-6.3C20 0 15.3.1 11.5 1.9zm108.6 27.7c11.2 3.3 20.8 11.6 25.7 22.2 4.8 10.4 4.2 25.4-1.3 36.5l-2.4 4.7 4 5.7c5.2 7.5 7.9 16.4 7.9 26.3 0 14.2-5.1 25.4-16.2 35.4-17.3 15.7-40.9 17.8-59.5 5.3-6-4-8-7.7-6.3-11.8 2.4-5.8 7.6-6.4 14.7-1.9 14.1 9 29.7 7.2 41.6-4.7 7.2-7.1 9.2-12.1 9.2-22.3 0-7.8-.3-9-3.4-14.8C126.4 96 110.5 87 93.2 87h-7.5l.8 8.7c1.1 12.3 1 13.1-1.6 15.9-3.9 4.1-10.7 2.9-12.7-2.3-3.1-7.9-4.3-41.6-1.8-50.8 2-7.5 5.2-13.2 10.6-18.6 10.4-10.4 25.4-14.3 39.1-10.3zM64.8 81.8c.8.5 1.4 3.4 1.5 7.5.2 5.8-.1 6.9-2.4 9.4-7.1 7.8-8.8 13.7-5.6 20 2.3 4.4 6.3 5.7 16 5 13.7-.8 24.7-6.6 36.4-19.1 3.5-3.6 6.7-6.6 7.1-6.6 1.1 0 4.6 3.9 6.1 6.7.6 1.2 1.1 3.7 1.1 5.5 0 2.8-1.1 4.3-7 10-11.9 11.5-24.9 17.7-41 19.9-19.8 2.7-34.6-7.4-36.7-24.9-1.2-10.8 7-25.9 17.2-31.4 5.6-3.1 5.5-3.1 7.3-2z"/>
    <path fill="#fff" d="M101.8 45.4c-2.1.8-4.9 2.1-6.3 3-3.8 2.5-8.4 9.3-9 13.5-1.5 9.7-2.4 8.6 6.9 8.8 10.4.1 19 2.3 28.8 7.1l7.7 3.8L131 79c.7-1.4 1.4-5 1.7-8.1 1.7-17.5-15-31.2-30.9-25.5z"/>
</svg>