<svg width="187" height="79" viewBox="0 0 187 79" fill="none" xmlns="http://www.w3.org/2000/svg">
<g clip-path="url(#clip0_3605_25251)">
<path d="M6.59743 34.8979H18.0009C24.7294 34.8979 28.0937 38.5006 28.0937 43.6226C28.0937 50.6545 22.6759 56.4276 13.8065 56.4276H10.0491L7.64603 68.7116H0L6.59743 34.8545V34.8979ZM14.8988 50.2204C18.8311 50.2204 20.1418 47.7028 20.1418 44.5342C20.1418 42.4506 19.0058 41.3221 16.6465 41.3221H13.0201L11.2724 50.2204H14.8988Z" fill="black"/>
<path d="M44.1719 43.1899C47.6236 43.1899 51.2063 44.3185 53.8715 45.968L49.4149 68.7564H43.8661V66.1954H43.6476C41.9874 68.2355 39.8902 69.3207 37.0065 69.3207C31.6761 69.3207 28.8799 64.9366 28.8799 59.2938C28.8799 50.2652 34.6472 43.1899 44.1719 43.1899ZM43.8661 60.2487L45.9196 49.7443C45.1332 49.4839 44.2593 49.3103 43.2981 49.3103C38.7979 49.3103 36.4822 53.6509 36.4822 58.8597C36.4822 61.985 37.6182 63.2004 39.1911 63.2004C40.9388 63.2004 42.5554 61.985 43.8661 60.2921V60.2487Z" fill="black"/>
<path d="M56.5783 72.8358C58.3697 72.8358 59.6804 71.9677 60.8601 69.7973L62.6515 66.672L58.2386 43.71H65.7536L67.8071 58.2512L75.3657 43.71H83.2302L66.8896 72.0979C65.3604 74.7457 62.7825 78.9561 56.622 78.9561C55.0928 78.9561 53.1267 78.6089 51.9907 78.088L53.5636 72.3583C54.3501 72.6622 55.3113 72.8358 56.622 72.8358H56.5783Z" fill="black"/>
<path d="M89.1709 34.8984H96.8169L91.3992 62.3314H105.031L103.371 68.7556H82.5298L89.1709 34.8984Z" fill="black"/>
<path d="M106.871 72.8358C108.662 72.8358 109.973 71.9677 111.153 69.7973L112.944 66.672L108.531 43.71H116.046L118.1 58.2512L125.658 43.71H133.523L117.182 72.0979C115.653 74.7457 113.075 78.9561 106.915 78.9561C105.385 78.9561 103.419 78.6089 102.283 78.088L103.856 72.3583C104.643 72.6622 105.604 72.8358 106.915 72.8358H106.871Z" fill="black"/>
<path d="M137.324 43.7542H143.048V46.2718H143.31C145.101 44.6224 147.854 43.1899 150.388 43.1899C155.413 43.1899 158.515 46.7927 157.204 53.5641L154.277 68.7564H147.068L149.908 54.0416C150.65 50.3954 149.689 49.3537 147.767 49.3537C146.369 49.3537 144.577 50.3954 143.048 51.7844L139.727 68.7564H132.475L137.368 43.7542H137.324Z" fill="black"/>
<path d="M167.16 32.4673H174.369L170.918 50.1338L178.083 43.7964H186.996L176.903 52.6079L183.457 68.7986H175.505L171.354 57.5129L169.082 59.5096L167.247 68.842H159.995L167.116 32.5541L167.16 32.4673Z" fill="black"/>
<path d="M39.5859 32.5543C60.3394 -10.0276 132.518 -11.7204 152.179 32.5543L151.131 33.9433C118.274 10.634 74.0149 12.8477 40.5908 33.9433L39.5859 32.5543Z" fill="#7B15FF"/>
</g>
<defs>
<clipPath id="clip0_3605_25251">
<rect width="187" height="79" fill="white"/>
</clipPath>
</defs>
</svg>
