<svg width="156" height="156" viewBox="0 0 156 156" fill="none" xmlns="http://www.w3.org/2000/svg">
<circle cx="78" cy="78" r="78" fill="#F7F7F7"/>
<path d="M27.3978 42.8187C27.1318 40.5968 28.7173 38.5798 30.9392 38.3137L84.1752 31.9384C85.2422 31.8106 86.3163 32.1119 87.1611 32.7761L92.8324 37.2343L98.5037 41.6925C99.3485 42.3566 99.895 43.3292 100.023 44.3962L108.084 111.713C108.35 113.935 106.765 115.952 104.543 116.218L41.1775 123.807C38.9556 124.073 36.9386 122.487 36.6725 120.265L27.3978 42.8187Z" fill="#F9F9F9" stroke="#C5C5C5" stroke-width="2.02597"/>
<path d="M42.898 31.4509C42.9713 29.2143 44.8439 27.4606 47.0805 27.5339L100.668 29.291C101.742 29.3262 102.758 29.7867 103.493 30.571L108.424 35.8364L113.355 41.1017C114.089 41.8861 114.482 42.9302 114.447 44.0043L112.225 111.766C112.152 114.003 110.279 115.756 108.043 115.683L44.2588 113.592C42.0221 113.518 40.2685 111.646 40.3418 109.409L42.898 31.4509Z" fill="#FDFDFD" stroke="#858585" stroke-width="2.02597"/>
<path d="M58.9305 23.5527C59.2919 21.3442 61.3752 19.8469 63.5837 20.2082L116.496 28.8666C117.557 29.0401 118.505 29.6279 119.132 30.5005L123.342 36.3582L127.553 42.2159C128.18 43.0886 128.435 44.1746 128.261 45.2351L117.313 112.143C116.951 114.352 114.868 115.849 112.66 115.488L49.679 105.182C47.4705 104.821 45.9731 102.737 46.3345 100.529L58.9305 23.5527Z" fill="white" stroke="black" stroke-width="2.02597"/>
<path d="M116.091 38.8298L118.151 28.6238L129.021 43.7464L118.69 42.4464C116.937 42.2258 115.741 40.5618 116.091 38.8298Z" fill="black"/>
<path d="M67.4565 34.1855L85.451 37.1301" stroke="#C5C5C5" stroke-width="3.03896" stroke-linejoin="round"/>
<path d="M65.1655 48.1816L100.155 53.9071" stroke="#C5C5C5" stroke-width="3.03896" stroke-linejoin="round"/>
<path d="M62.8757 62.1777L84.8689 65.7766" stroke="#C5C5C5" stroke-width="3.03896" stroke-linejoin="round"/>
<path d="M66.3118 41.1836L94.3031 45.764" stroke="#C5C5C5" stroke-width="3.03896" stroke-linejoin="round"/>
<path d="M64.022 55.1797L99.0112 60.9052" stroke="#C5C5C5" stroke-width="3.03896" stroke-linejoin="round"/>
<path d="M61.731 69.1748L96.7202 74.9003" stroke="#C5C5C5" stroke-width="3.03896" stroke-linejoin="round"/>
<circle cx="123.564" cy="90.3567" r="15.4455" fill="#00BD59"/>
<path d="M117.128 90.3565L120.989 94.2179L129.999 85.208" stroke="white" stroke-width="2.31683"/>
</svg>
