<svg width="168" height="21" viewBox="0 0 168 21" fill="none" xmlns="http://www.w3.org/2000/svg">
<g clip-path="url(#clip0_3605_25263)">
<path d="M85.9907 20.3085C84.0354 20.3085 82.5217 19.3745 81.7771 18.8012C81.2831 18.422 81.1952 17.7174 81.5787 17.2291C81.9623 16.7408 82.6752 16.6539 83.1673 17.033C83.7005 17.4436 84.8007 18.1243 86.1572 18.0651C88.4511 17.9652 90.6197 15.8457 90.6197 13.7021C90.6197 12.6331 90.4195 11.9247 89.8806 11.0925L89.86 11.0592C88.8197 9.31878 86.5651 8.14805 84.2506 8.14805C83.6781 8.14805 83.1467 8.22203 82.6696 8.36999C82.0727 8.55494 81.4384 8.22573 81.2513 7.63574C81.0642 7.04575 81.3972 6.41692 81.9941 6.23382C82.6901 6.01928 83.4479 5.91016 84.2487 5.91016C87.3771 5.91016 90.3371 7.47668 91.7966 9.90323C92.5656 11.0999 92.8799 12.2022 92.8799 13.7021C92.8799 17.0072 89.7197 20.1532 86.2508 20.303C86.1609 20.3067 86.073 20.3085 85.9851 20.3085H85.9907Z" fill="black"/>
<path d="M81.0733 15.6599C78.7513 15.6599 77 13.9602 77 11.7075C77 10.8549 77.3125 9.98933 77.9299 9.13486L77.9524 9.10527C78.0253 9.0017 78.1058 8.89998 78.1919 8.79825C78.2517 8.72612 78.4463 8.49494 78.7588 8.19532C79.2078 7.76438 79.9245 7.77548 80.3604 8.21936C80.7964 8.66324 80.7851 9.3716 80.3361 9.80253C80.0891 10.0393 79.9507 10.2094 79.9488 10.2113L79.9226 10.2427C79.8796 10.2908 79.8421 10.3389 79.8103 10.3851L79.7729 10.4388C79.6475 10.6126 79.264 11.1416 79.264 11.7094C79.264 12.7173 80.0068 13.422 81.0733 13.422C82.2595 13.422 84.546 13.1002 86.5237 10.9418L86.5368 10.9289L86.8661 10.5812C87.2927 10.1299 88.0093 10.1058 88.4677 10.5294C88.9242 10.9511 88.9486 11.6594 88.5201 12.1126L88.1983 12.4529C85.6368 15.2438 82.6356 15.6617 81.0752 15.6617L81.0733 15.6599Z" fill="black"/>
<path d="M82.4532 11.9718C81.8994 11.9718 81.4148 11.5705 81.3343 11.0119C81.0443 9.02001 80.9489 7.20935 81.0425 5.47452C81.0593 2.45244 83.5515 0 86.6107 0C89.6699 0 92.1809 2.46908 92.1809 5.50596C92.1809 7.27778 91.6757 8.3246 90.8599 9.43985C90.4932 9.94106 89.784 10.052 89.2788 9.68953C88.7718 9.32703 88.6595 8.62792 89.0263 8.1267C89.6306 7.30183 89.9169 6.69889 89.9169 5.50596C89.9169 3.70455 88.435 2.23974 86.6126 2.23974C84.7902 2.23974 83.3083 3.70455 83.3083 5.50596V5.567C83.2185 7.16126 83.3064 8.83691 83.5759 10.692C83.6657 11.3041 83.2353 11.8719 82.616 11.9607C82.5618 11.9681 82.5075 11.9718 82.4532 11.9718Z" fill="black"/>
<path d="M86.8398 10.6088L87.5377 9.84681C87.6425 9.74324 87.9082 9.73399 88.0335 9.84681C88.1982 9.99477 88.5088 10.3295 88.7389 10.9251C88.8587 11.2376 86.5367 11.6556 86.8398 10.6107V10.6088Z" fill="black"/>
<path d="M78.7145 8.22499C79.0944 7.87174 79.5228 7.62021 79.912 7.49074C80.2076 7.39272 80.5837 7.38347 80.6099 7.77002C80.638 8.1954 80.681 8.67997 80.6791 8.96479C80.6791 9.2977 78.0447 9.08686 78.7145 8.22499Z" fill="black"/>
</g>
<path d="M101.476 15.6035C101.326 15.6035 101.226 15.5035 101.226 15.3536V4.18965C101.226 4.03969 101.326 3.93971 101.476 3.93971H105.408C107.541 3.93971 108.624 5.30604 108.624 6.87233C108.624 8.10536 107.924 8.95515 107.091 9.32172C108.308 9.63831 109.374 10.6214 109.374 12.3043C109.374 14.2538 108.041 15.6035 105.275 15.6035H101.476ZM103.575 13.504H105.108C106.258 13.504 106.958 13.0208 106.958 11.9544C106.958 10.888 106.258 10.4215 105.108 10.4215H103.575V13.504ZM103.575 8.57191H104.942C105.825 8.57191 106.375 8.17201 106.375 7.25556C106.375 6.35579 105.825 6.0392 104.942 6.0392H103.575V8.57191ZM114.386 15.8035C112.087 15.8035 110.504 13.9539 110.504 11.5212C110.504 9.10511 112.087 7.2389 114.386 7.2389C115.619 7.2389 116.502 7.73878 117.052 8.58857L117.085 7.68879C117.085 7.53883 117.185 7.43885 117.335 7.43885H118.968C119.118 7.43885 119.218 7.53883 119.218 7.68879V15.3536C119.218 15.5035 119.102 15.6035 118.952 15.6035H117.335C117.185 15.6035 117.085 15.5035 117.085 15.3536L117.052 14.4538C116.486 15.2869 115.602 15.8035 114.386 15.8035ZM112.753 11.5212C112.753 12.8375 113.653 13.704 114.869 13.704C116.086 13.704 116.935 12.8375 116.935 11.5212C116.935 10.2048 116.086 9.33839 114.869 9.33839C113.653 9.33839 112.753 10.2215 112.753 11.5212ZM121.454 15.6035C121.304 15.6035 121.204 15.5035 121.204 15.3536V3.93971C121.204 3.78975 121.304 3.68977 121.454 3.68977H123.27C123.42 3.68977 123.52 3.78975 123.52 3.93971V15.3536C123.52 15.5035 123.42 15.6035 123.27 15.6035H121.454ZM125.75 15.6035C125.6 15.6035 125.5 15.5035 125.5 15.3536V3.93971C125.5 3.78975 125.6 3.68977 125.75 3.68977H127.566C127.716 3.68977 127.816 3.78975 127.816 3.93971V15.3536C127.816 15.5035 127.716 15.6035 127.566 15.6035H125.75ZM133.862 15.8035C131.179 15.8035 129.379 13.9539 129.379 11.4879C129.379 9.08845 131.062 7.2389 133.578 7.2389C136.061 7.2389 137.494 9.07179 137.494 11.1379C137.494 11.9377 137.311 12.3876 136.594 12.3876H131.629C131.879 13.4207 132.728 13.9872 134.045 13.9872C134.678 13.9872 135.278 13.8706 135.944 13.4874C136.061 13.4207 136.144 13.4374 136.228 13.554L136.844 14.4038C136.927 14.5204 136.911 14.6371 136.761 14.7704C136.061 15.4702 135.011 15.8035 133.862 15.8035ZM131.595 10.7714H135.444C135.311 9.6883 134.578 9.13844 133.595 9.13844C132.579 9.13844 131.795 9.6883 131.595 10.7714ZM139.288 15.6035C139.138 15.6035 139.038 15.5035 139.038 15.3536V7.68879C139.038 7.53883 139.138 7.43885 139.288 7.43885H141.021C141.171 7.43885 141.255 7.5055 141.271 7.70545L141.338 8.7552C141.621 7.88874 142.138 7.2389 143.104 7.2389C143.487 7.2389 143.721 7.33888 143.854 7.43885C143.971 7.52217 144.004 7.62214 144.004 7.77211V9.23841C144.004 9.43836 143.887 9.48835 143.671 9.43836C143.487 9.38837 143.304 9.35505 143.071 9.35505C141.938 9.35505 141.338 10.1049 141.338 11.2712V15.3536C141.338 15.5035 141.238 15.6035 141.088 15.6035H139.288ZM146.665 5.98921C145.932 5.98921 145.382 5.42268 145.382 4.70619C145.382 4.00636 145.932 3.43984 146.665 3.43984C147.398 3.43984 147.932 4.00636 147.932 4.70619C147.932 5.42268 147.398 5.98921 146.665 5.98921ZM145.499 15.3536V7.68879C145.499 7.53883 145.599 7.43885 145.749 7.43885H147.565C147.715 7.43885 147.815 7.53883 147.815 7.68879V15.3536C147.815 15.5035 147.715 15.6035 147.565 15.6035H145.749C145.599 15.6035 145.499 15.5035 145.499 15.3536ZM150.06 15.6035C149.91 15.6035 149.81 15.5035 149.81 15.3536V7.68879C149.81 7.53883 149.91 7.43885 150.06 7.43885H151.793C151.943 7.43885 152.043 7.5055 152.043 7.70545L152.11 8.67188C152.576 7.83876 153.36 7.2389 154.576 7.2389C156.276 7.2389 157.525 8.47193 157.525 10.6047V15.3536C157.525 15.5035 157.409 15.6035 157.259 15.6035H155.476C155.326 15.6035 155.226 15.5035 155.226 15.3536V11.1213C155.226 9.97156 154.693 9.35505 153.71 9.35505C152.743 9.35505 152.11 9.97156 152.11 11.1213V15.3536C152.11 15.5035 152.01 15.6035 151.86 15.6035H150.06ZM163.558 15.8035C160.875 15.8035 159.076 13.9539 159.076 11.4879C159.076 9.08845 160.759 7.2389 163.275 7.2389C165.757 7.2389 167.19 9.07179 167.19 11.1379C167.19 11.9377 167.007 12.3876 166.291 12.3876H161.325C161.575 13.4207 162.425 13.9872 163.741 13.9872C164.374 13.9872 164.974 13.8706 165.641 13.4874C165.757 13.4207 165.841 13.4374 165.924 13.554L166.541 14.4038C166.624 14.5204 166.607 14.6371 166.457 14.7704C165.757 15.4702 164.708 15.8035 163.558 15.8035ZM161.292 10.7714H165.141C165.008 9.6883 164.275 9.13844 163.291 9.13844C162.275 9.13844 161.492 9.6883 161.292 10.7714Z" fill="black"/>
<path d="M1.07049 15.3086V6.58132H4.01935C4.70401 6.58132 5.26367 6.7049 5.69833 6.95206C6.13583 7.19638 6.45969 7.52734 6.66992 7.94496C6.88015 8.36257 6.98526 8.82848 6.98526 9.34268C6.98526 9.85689 6.88015 10.3242 6.66992 10.7447C6.46254 11.1651 6.14151 11.5004 5.70685 11.7504C5.27219 11.9975 4.71538 12.1211 4.0364 12.1211H1.92276V11.1836H4.00231C4.47106 11.1836 4.84748 11.1026 5.13157 10.9407C5.41566 10.7788 5.62163 10.56 5.74947 10.2844C5.88015 10.006 5.94549 9.69212 5.94549 9.34268C5.94549 8.99325 5.88015 8.68075 5.74947 8.40518C5.62163 8.12962 5.41424 7.91371 5.12731 7.75746C4.84038 7.59837 4.45969 7.51882 3.98526 7.51882H2.12731V15.3086H1.07049ZM11.1401 15.445C10.5492 15.445 10.0307 15.3043 9.58469 15.0231C9.14151 14.7418 8.79492 14.3484 8.54492 13.8427C8.29776 13.337 8.17418 12.7461 8.17418 12.07C8.17418 11.3881 8.29776 10.793 8.54492 10.2844C8.79492 9.77592 9.14151 9.38104 9.58469 9.09979C10.0307 8.81854 10.5492 8.67791 11.1401 8.67791C11.731 8.67791 12.248 8.81854 12.6912 9.09979C13.1373 9.38104 13.4838 9.77592 13.731 10.2844C13.981 10.793 14.106 11.3881 14.106 12.07C14.106 12.7461 13.981 13.337 13.731 13.8427C13.4838 14.3484 13.1373 14.7418 12.6912 15.0231C12.248 15.3043 11.731 15.445 11.1401 15.445ZM11.1401 14.5415C11.589 14.5415 11.9583 14.4265 12.248 14.1964C12.5378 13.9663 12.7523 13.6637 12.8915 13.2887C13.0307 12.9137 13.1003 12.5075 13.1003 12.07C13.1003 11.6325 13.0307 11.2248 12.8915 10.8469C12.7523 10.4691 12.5378 10.1637 12.248 9.93075C11.9583 9.6978 11.589 9.58132 11.1401 9.58132C10.6912 9.58132 10.3219 9.6978 10.0321 9.93075C9.74237 10.1637 9.52788 10.4691 9.38867 10.8469C9.24947 11.2248 9.17987 11.6325 9.17987 12.07C9.17987 12.5075 9.24947 12.9137 9.38867 13.2887C9.52788 13.6637 9.74237 13.9663 10.0321 14.1964C10.3219 14.4265 10.6912 14.5415 11.1401 14.5415ZM16.9015 15.3086L14.9071 8.76314H15.964L17.3787 13.7745H17.4469L18.8446 8.76314H19.9185L21.2992 13.7575H21.3674L22.7821 8.76314H23.839L21.8446 15.3086H20.856L19.4242 10.2802H19.3219L17.8901 15.3086H16.9015ZM27.6902 15.445C27.0595 15.445 26.5154 15.3058 26.0581 15.0273C25.6035 14.7461 25.2527 14.354 25.0055 13.8512C24.7612 13.3455 24.639 12.7575 24.639 12.087C24.639 11.4165 24.7612 10.8256 25.0055 10.3143C25.2527 9.80007 25.5964 9.3995 26.0368 9.11257C26.4799 8.8228 26.997 8.67791 27.5879 8.67791C27.9288 8.67791 28.2654 8.73473 28.5978 8.84837C28.9302 8.962 29.2328 9.14666 29.5055 9.40234C29.7782 9.65518 29.9956 9.99041 30.1575 10.408C30.3194 10.8256 30.4004 11.3398 30.4004 11.9506V12.3768H25.3549V11.5075H29.3777C29.3777 11.1381 29.3038 10.8086 29.1561 10.5188C29.0112 10.229 28.8038 10.0004 28.5339 9.83274C28.2669 9.66513 27.9515 9.58132 27.5879 9.58132C27.1873 9.58132 26.8407 9.68075 26.5481 9.87962C26.2583 10.0756 26.0353 10.3313 25.8791 10.6467C25.7228 10.962 25.6447 11.3001 25.6447 11.6609V12.2404C25.6447 12.7347 25.7299 13.1538 25.9004 13.4975C26.0737 13.8384 26.3137 14.0984 26.6206 14.2773C26.9274 14.4535 27.2839 14.5415 27.6902 14.5415C27.9544 14.5415 28.193 14.5046 28.4061 14.4308C28.622 14.354 28.8081 14.2404 28.9643 14.0898C29.1206 13.9364 29.2413 13.7461 29.3265 13.5188L30.2981 13.7915C30.1958 14.1211 30.024 14.4109 29.7825 14.6609C29.541 14.908 29.2427 15.1012 28.8876 15.2404C28.5325 15.3768 28.1333 15.445 27.6902 15.445ZM31.9302 15.3086V8.76314H32.9018V9.75178H32.97C33.0893 9.42791 33.3052 9.16513 33.6177 8.96342C33.9302 8.76172 34.2825 8.66087 34.6745 8.66087C34.7484 8.66087 34.8407 8.66229 34.9515 8.66513C35.0623 8.66797 35.1461 8.67223 35.2029 8.67791V9.70064C35.1689 9.69212 35.0907 9.67933 34.9686 9.66229C34.8493 9.6424 34.7228 9.63246 34.5893 9.63246C34.2711 9.63246 33.987 9.69922 33.737 9.83274C33.4899 9.96342 33.2939 10.1452 33.149 10.3782C33.0069 10.6083 32.9359 10.8711 32.9359 11.1665V15.3086H31.9302ZM38.9402 15.445C38.3095 15.445 37.7654 15.3058 37.3081 15.0273C36.8535 14.7461 36.5027 14.354 36.2555 13.8512C36.0112 13.3455 35.889 12.7575 35.889 12.087C35.889 11.4165 36.0112 10.8256 36.2555 10.3143C36.5027 9.80007 36.8464 9.3995 37.2868 9.11257C37.7299 8.8228 38.247 8.67791 38.8379 8.67791C39.1788 8.67791 39.5154 8.73473 39.8478 8.84837C40.1802 8.962 40.4828 9.14666 40.7555 9.40234C41.0282 9.65518 41.2456 9.99041 41.4075 10.408C41.5694 10.8256 41.6504 11.3398 41.6504 11.9506V12.3768H36.6049V11.5075H40.6277C40.6277 11.1381 40.5538 10.8086 40.4061 10.5188C40.2612 10.229 40.0538 10.0004 39.7839 9.83274C39.5169 9.66513 39.2015 9.58132 38.8379 9.58132C38.4373 9.58132 38.0907 9.68075 37.7981 9.87962C37.5083 10.0756 37.2853 10.3313 37.1291 10.6467C36.9728 10.962 36.8947 11.3001 36.8947 11.6609V12.2404C36.8947 12.7347 36.9799 13.1538 37.1504 13.4975C37.3237 13.8384 37.5637 14.0984 37.8706 14.2773C38.1774 14.4535 38.5339 14.5415 38.9402 14.5415C39.2044 14.5415 39.443 14.5046 39.6561 14.4308C39.872 14.354 40.0581 14.2404 40.2143 14.0898C40.3706 13.9364 40.4913 13.7461 40.5765 13.5188L41.5481 13.7915C41.4458 14.1211 41.274 14.4109 41.0325 14.6609C40.791 14.908 40.4927 15.1012 40.1376 15.2404C39.7825 15.3768 39.3833 15.445 38.9402 15.445ZM45.6518 15.445C45.1064 15.445 44.6248 15.3072 44.2072 15.0316C43.7896 14.7532 43.4629 14.3612 43.2271 13.8555C42.9913 13.3469 42.8734 12.7461 42.8734 12.0529C42.8734 11.3654 42.9913 10.7688 43.2271 10.2631C43.4629 9.75746 43.791 9.36683 44.2115 9.09126C44.6319 8.8157 45.1177 8.67791 45.6689 8.67791C46.095 8.67791 46.4316 8.74893 46.6788 8.89098C46.9288 9.03018 47.1191 9.18928 47.2498 9.36825C47.3833 9.54439 47.487 9.68928 47.5609 9.80291H47.6461V6.58132H48.6518V15.3086H47.6802V14.3029H47.5609C47.487 14.4222 47.3819 14.5728 47.2456 14.7546C47.1092 14.9336 46.9146 15.0941 46.6618 15.2362C46.4089 15.3754 46.0723 15.445 45.6518 15.445ZM45.7882 14.5415C46.1916 14.5415 46.5325 14.4364 46.8109 14.2262C47.0893 14.0131 47.301 13.7191 47.4458 13.3441C47.5907 12.9663 47.6632 12.5302 47.6632 12.0359C47.6632 11.5472 47.5922 11.1197 47.4501 10.7532C47.3081 10.3839 47.0978 10.0969 46.8194 9.8924C46.541 9.68501 46.1973 9.58132 45.7882 9.58132C45.362 9.58132 45.0069 9.6907 44.7228 9.90945C44.4416 10.1254 44.2299 10.4194 44.0879 10.7915C43.9487 11.1609 43.8791 11.5756 43.8791 12.0359C43.8791 12.5018 43.9501 12.9251 44.0922 13.3058C44.237 13.6836 44.4501 13.9847 44.7314 14.2092C45.0154 14.4308 45.3677 14.5415 45.7882 14.5415ZM54.1447 15.3086V6.58132H55.1504V9.80291H55.2356C55.3095 9.68928 55.4118 9.54439 55.5424 9.36825C55.676 9.18928 55.8663 9.03018 56.1135 8.89098C56.3635 8.74893 56.7015 8.67791 57.1277 8.67791C57.6788 8.67791 58.1646 8.8157 58.585 9.09126C59.0055 9.36683 59.3336 9.75746 59.5694 10.2631C59.8052 10.7688 59.9231 11.3654 59.9231 12.0529C59.9231 12.7461 59.8052 13.3469 59.5694 13.8555C59.3336 14.3612 59.0069 14.7532 58.5893 15.0316C58.1717 15.3072 57.6902 15.445 57.1447 15.445C56.7243 15.445 56.3876 15.3754 56.1348 15.2362C55.8819 15.0941 55.6873 14.9336 55.551 14.7546C55.4146 14.5728 55.3095 14.4222 55.2356 14.3029H55.1163V15.3086H54.1447ZM55.1333 12.0359C55.1333 12.5302 55.2058 12.9663 55.3507 13.3441C55.4956 13.7191 55.7072 14.0131 55.9856 14.2262C56.264 14.4364 56.6049 14.5415 57.0083 14.5415C57.4288 14.5415 57.7797 14.4308 58.0609 14.2092C58.345 13.9847 58.5581 13.6836 58.7001 13.3058C58.845 12.9251 58.9174 12.5018 58.9174 12.0359C58.9174 11.5756 58.8464 11.1609 58.7044 10.7915C58.5652 10.4194 58.3535 10.1254 58.0694 9.90945C57.7882 9.6907 57.4345 9.58132 57.0083 9.58132C56.5993 9.58132 56.2555 9.68501 55.9771 9.8924C55.6987 10.0969 55.4885 10.3839 55.3464 10.7532C55.2044 11.1197 55.1333 11.5472 55.1333 12.0359ZM61.8748 17.7631C61.7044 17.7631 61.5524 17.7489 61.4189 17.7205C61.2853 17.695 61.193 17.6694 61.1419 17.6438L61.3975 16.7575C61.6419 16.82 61.8578 16.8427 62.0453 16.8256C62.2328 16.8086 62.399 16.7248 62.5439 16.5742C62.6916 16.4265 62.8265 16.1864 62.9487 15.854L63.1362 15.3427L60.7157 8.76314H61.8066L63.6135 13.979H63.6816L65.4885 8.76314H66.5794L63.801 16.2631C63.676 16.6012 63.5211 16.881 63.3365 17.1026C63.1518 17.3271 62.9373 17.4933 62.693 17.6012C62.4515 17.7092 62.1788 17.7631 61.8748 17.7631Z" fill="black"/>
<defs>
<clipPath id="clip0_3605_25263">
<rect width="15.8815" height="20.3075" fill="white" transform="translate(77)"/>
</clipPath>
</defs>
</svg>
