<svg width="134" height="33" viewBox="0 0 134 33" fill="none" xmlns="http://www.w3.org/2000/svg">
<path fill-rule="evenodd" clip-rule="evenodd" d="M0.088092 13.1234V12.0319L0.199311 10.6973C0.325361 9.18467 0.647698 7.6949 1.1582 6.26549L1.22624 6.07499C2.70558 1.93284 6.92211 -0.571319 11.2671 0.111791L11.4628 0.142556C15.4454 0.768686 18.3798 4.20042 18.3798 8.23194C18.3798 11.4647 16.8812 14.3474 14.5407 16.2233C14.4048 16.3323 14.3832 16.5325 14.4925 16.6682C16.1368 18.7092 16.9495 21.4261 16.4615 24.2588C15.7655 28.2989 12.5504 31.4415 8.49435 32.0372L4.95501 32.5569C4.69638 32.5949 4.43978 32.4762 4.30123 32.2546C1.50004 27.7727 0.0300325 22.5871 0.0624569 17.3019L0 15.2126L0.088092 13.1234ZM10.4371 5.39143L10.6328 5.42219C12.0161 5.63967 13.0353 6.83164 13.0353 8.23194C13.0353 10.9334 10.8453 13.1234 8.14386 13.1234H5.73368C5.56738 13.1234 5.43258 12.9886 5.43258 12.8223V12.2542L5.52534 11.1411C5.61288 10.0905 5.83676 9.05583 6.19133 8.06303L6.25936 7.87254C6.87487 6.14911 8.62925 5.1072 10.4371 5.39143ZM7.09283 18.4679H5.43258C5.43029 18.4679 5.42846 18.4698 5.42856 18.4721C5.55296 21.2772 6.20008 24.0285 7.33021 26.5859C7.38445 26.7086 7.51431 26.7793 7.64709 26.7598L7.71782 26.7494C9.48249 26.4903 10.8901 25.1191 11.1946 23.3515C11.6347 20.7968 9.66548 18.4679 7.09283 18.4679Z" fill="#3F77FF"/>
<path d="M31.7914 25.6797V8.18191H38.7973C40.0846 8.18191 41.1583 8.37272 42.0184 8.75435C42.8784 9.13597 43.5249 9.66569 43.9578 10.3435C44.3907 11.0156 44.6071 11.7903 44.6071 12.6674C44.6071 13.3509 44.4704 13.9518 44.197 14.4702C43.9236 14.9828 43.5477 15.4043 43.0693 15.7347C42.5965 16.0593 42.0554 16.29 41.4459 16.4267V16.5976C42.1123 16.6261 42.736 16.814 43.317 17.1615C43.9037 17.5089 44.3793 17.9959 44.7438 18.6225C45.1084 19.2433 45.2907 19.9838 45.2907 20.8439C45.2907 21.7723 45.06 22.6011 44.5986 23.3301C44.1429 24.0535 43.468 24.6259 42.5737 25.0474C41.6795 25.4689 40.5773 25.6797 39.2673 25.6797H31.7914ZM35.4909 22.6552H38.5068C39.5378 22.6552 40.2897 22.4587 40.7624 22.0656C41.2352 21.6669 41.4716 21.1372 41.4716 20.4765C41.4716 19.9923 41.3548 19.5651 41.1213 19.1949C40.8877 18.8247 40.5545 18.5342 40.1216 18.3234C39.6944 18.1127 39.1847 18.0073 38.5923 18.0073H35.4909V22.6552ZM35.4909 15.504H38.2334C38.7404 15.504 39.1904 15.4157 39.5834 15.2391C39.9821 15.0569 40.2954 14.8005 40.5232 14.4702C40.7567 14.1398 40.8735 13.7439 40.8735 13.2826C40.8735 12.6503 40.6485 12.1406 40.1985 11.7532C39.7542 11.3659 39.122 11.1723 38.3018 11.1723H35.4909V15.504ZM51.3717 25.9275C50.5344 25.9275 49.7883 25.7822 49.1332 25.4917C48.4782 25.1955 47.9599 24.7598 47.5783 24.1845C47.2023 23.6035 47.0144 22.8802 47.0144 22.0144C47.0144 21.2853 47.1482 20.673 47.4159 20.1775C47.6836 19.6819 48.0482 19.2832 48.5095 18.9813C48.9709 18.6794 49.4949 18.4516 50.0816 18.2978C50.674 18.144 51.2948 18.0358 51.9442 17.9731C52.7074 17.8934 53.3226 17.8194 53.7896 17.751C54.2567 17.677 54.5956 17.5687 54.8064 17.4263C55.0171 17.2839 55.1225 17.0732 55.1225 16.7941V16.7428C55.1225 16.2017 54.9516 15.7831 54.6098 15.4869C54.2738 15.1907 53.7953 15.0426 53.1745 15.0426C52.5195 15.0426 51.9983 15.1879 51.611 15.4783C51.2236 15.7631 50.9673 16.122 50.842 16.5549L47.4757 16.2815C47.6466 15.484 47.9827 14.7948 48.4839 14.2139C48.9852 13.6272 49.6316 13.1772 50.4234 12.8639C51.2208 12.545 52.1435 12.3855 53.1916 12.3855C53.9206 12.3855 54.6184 12.4709 55.2848 12.6418C55.9569 12.8127 56.5521 13.0775 57.0705 13.4364C57.5945 13.7952 58.0074 14.2566 58.3093 14.8205C58.6112 15.3787 58.7621 16.0479 58.7621 16.8283V25.6797H55.3104V23.8599H55.2079C54.9972 24.27 54.7152 24.6316 54.3621 24.9449C54.0089 25.2525 53.5846 25.4946 53.089 25.6711C52.5935 25.842 52.0211 25.9275 51.3717 25.9275ZM52.4141 23.4156C52.9495 23.4156 53.4223 23.3102 53.8324 23.0994C54.2425 22.883 54.5643 22.5925 54.7978 22.228C55.0313 21.8634 55.1481 21.4505 55.1481 20.9891V19.5965C55.0342 19.6705 54.8776 19.7389 54.6782 19.8015C54.4845 19.8585 54.2652 19.9126 54.0203 19.9639C53.7754 20.0094 53.5305 20.0521 53.2855 20.092C53.0406 20.1262 52.8185 20.1575 52.6191 20.186C52.1919 20.2487 51.8189 20.3483 51.4999 20.485C51.1809 20.6217 50.9331 20.8069 50.7566 21.0404C50.58 21.2682 50.4917 21.553 50.4917 21.8948C50.4917 22.3903 50.6711 22.7691 51.03 23.0311C51.3945 23.2874 51.8559 23.4156 52.4141 23.4156ZM65.2256 8.18191V25.6797H61.5859V8.18191H65.2256ZM71.7808 8.18191V25.6797H68.1411V8.18191H71.7808ZM80.6771 25.936C79.3272 25.936 78.1652 25.6626 77.1912 25.1158C76.2229 24.5633 75.4767 23.783 74.9527 22.7748C74.4287 21.7609 74.1667 20.5619 74.1667 19.1778C74.1667 17.8279 74.4287 16.6432 74.9527 15.6236C75.4767 14.604 76.2144 13.8095 77.1656 13.2399C78.1225 12.6703 79.2446 12.3855 80.5318 12.3855C81.3976 12.3855 82.2036 12.525 82.9497 12.8041C83.7016 13.0775 84.3566 13.4905 84.9148 14.043C85.4787 14.5955 85.9173 15.2904 86.2306 16.1277C86.5439 16.9593 86.7005 17.9333 86.7005 19.0497V20.0493H75.6191V17.7937H83.2744C83.2744 17.2697 83.1605 16.8055 82.9327 16.4011C82.7048 15.9967 82.3887 15.6806 81.9843 15.4527C81.5856 15.2192 81.1214 15.1024 80.5916 15.1024C80.0391 15.1024 79.5493 15.2306 79.1221 15.4869C78.7006 15.7375 78.3703 16.0764 78.131 16.5036C77.8918 16.9251 77.7693 17.395 77.7636 17.9133V20.0578C77.7636 20.7072 77.8833 21.2682 78.1225 21.741C78.3674 22.2137 78.712 22.5783 79.1563 22.8346C79.6006 23.0909 80.1274 23.2191 80.7369 23.2191C81.1413 23.2191 81.5115 23.1621 81.8476 23.0482C82.1837 22.9343 82.4713 22.7634 82.7105 22.5356C82.9497 22.3077 83.132 22.0286 83.2573 21.6983L86.6236 21.9204C86.4527 22.7292 86.1024 23.4355 85.5727 24.0393C85.0487 24.6373 84.3709 25.1044 83.5393 25.4405C82.7134 25.7708 81.7593 25.936 80.6771 25.936ZM89.0757 25.6797V12.5564H92.6043V14.8461H92.741C92.9802 14.0316 93.3818 13.4164 93.9457 13.0006C94.5096 12.5791 95.1589 12.3684 95.8937 12.3684C96.0759 12.3684 96.2724 12.3798 96.4832 12.4026C96.6939 12.4254 96.879 12.4567 97.0385 12.4965V15.7261C96.8677 15.6749 96.6313 15.6293 96.3294 15.5894C96.0275 15.5495 95.7513 15.5296 95.5006 15.5296C94.9652 15.5296 94.4868 15.6464 94.0653 15.8799C93.6495 16.1077 93.3191 16.4267 93.0742 16.8368C92.835 17.2469 92.7153 17.7197 92.7153 18.2551V25.6797H89.0757ZM98.9203 25.6797V12.5564H102.56V25.6797H98.9203ZM100.749 10.8647C100.208 10.8647 99.7434 10.6853 99.356 10.3264C98.9744 9.96188 98.7836 9.52614 98.7836 9.01921C98.7836 8.51797 98.9744 8.08793 99.356 7.72909C99.7434 7.36455 100.208 7.18228 100.749 7.18228C101.29 7.18228 101.751 7.36455 102.133 7.72909C102.52 8.08793 102.714 8.51797 102.714 9.01921C102.714 9.52614 102.52 9.96188 102.133 10.3264C101.751 10.6853 101.29 10.8647 100.749 10.8647ZM109.115 18.0928V25.6797H105.476V12.5564H108.944V14.8717H109.098C109.389 14.1085 109.876 13.5047 110.559 13.0604C111.243 12.6105 112.071 12.3855 113.045 12.3855C113.957 12.3855 114.751 12.5848 115.429 12.9835C116.107 13.3823 116.634 13.9518 117.01 14.6923C117.386 15.4271 117.574 16.3043 117.574 17.3238V25.6797H113.934V17.9731C113.94 17.17 113.735 16.5435 113.319 16.0935C112.903 15.6378 112.331 15.41 111.601 15.41C111.112 15.41 110.679 15.5154 110.303 15.7261C109.933 15.9369 109.642 16.2444 109.431 16.6489C109.226 17.0476 109.121 17.5289 109.115 18.0928ZM126.423 25.936C125.073 25.936 123.911 25.6626 122.937 25.1158C121.969 24.5633 121.223 23.783 120.699 22.7748C120.175 21.7609 119.913 20.5619 119.913 19.1778C119.913 17.8279 120.175 16.6432 120.699 15.6236C121.223 14.604 121.96 13.8095 122.911 13.2399C123.868 12.6703 124.99 12.3855 126.278 12.3855C127.143 12.3855 127.949 12.525 128.696 12.8041C129.447 13.0775 130.102 13.4905 130.661 14.043C131.225 14.5955 131.663 15.2904 131.976 16.1277C132.29 16.9593 132.446 17.9333 132.446 19.0497V20.0493H121.365V17.7937H129.02C129.02 17.2697 128.906 16.8055 128.678 16.4011C128.451 15.9967 128.135 15.6806 127.73 15.4527C127.331 15.2192 126.867 15.1024 126.337 15.1024C125.785 15.1024 125.295 15.2306 124.868 15.4869C124.446 15.7375 124.116 16.0764 123.877 16.5036C123.638 16.9251 123.515 17.395 123.509 17.9133V20.0578C123.509 20.7072 123.629 21.2682 123.868 21.741C124.113 22.2137 124.458 22.5783 124.902 22.8346C125.346 23.0909 125.873 23.2191 126.483 23.2191C126.887 23.2191 127.257 23.1621 127.593 23.0482C127.929 22.9343 128.217 22.7634 128.456 22.5356C128.696 22.3077 128.878 22.0286 129.003 21.6983L132.369 21.9204C132.199 22.7292 131.848 23.4355 131.319 24.0393C130.795 24.6373 130.117 25.1044 129.285 25.4405C128.459 25.7708 127.505 25.936 126.423 25.936Z" fill="black"/>
</svg>
