
<svg width="130" height="35" viewBox="0 0 130 35" fill="none" xmlns="http://www.w3.org/2000/svg">
<path d="M41.4898 27.2461V12.049H47.5746C48.6926 12.049 49.6251 12.2147 50.3721 12.5461C51.1191 12.8776 51.6806 13.3377 52.0566 13.9264C52.4326 14.5101 52.6205 15.1829 52.6205 15.9447C52.6205 16.5384 52.5018 17.0603 52.2644 17.5104C52.0269 17.9557 51.7004 18.3217 51.2849 18.6087C50.8743 18.8906 50.4043 19.091 49.875 19.2097V19.3581C50.4538 19.3829 50.9955 19.5461 51.5 19.8479C52.0096 20.1497 52.4227 20.5726 52.7393 21.1168C53.0559 21.656 53.2142 22.2991 53.2142 23.0461C53.2142 23.8525 53.0138 24.5723 52.6131 25.2055C52.2174 25.8337 51.6311 26.3309 50.8545 26.697C50.0778 27.0631 49.1206 27.2461 47.9827 27.2461H41.4898ZM44.7029 24.6192H47.3223C48.2177 24.6192 48.8707 24.4486 49.2813 24.1072C49.6919 23.7609 49.8972 23.3009 49.8972 22.727C49.8972 22.3065 49.7958 21.9355 49.593 21.614C49.3902 21.2924 49.1008 21.0401 48.7248 20.8571C48.3538 20.674 47.911 20.5825 47.3965 20.5825H44.7029V24.6192ZM44.7029 18.4083H47.0849C47.5251 18.4083 47.916 18.3316 48.2573 18.1783C48.6036 18.02 48.8757 17.7974 49.0736 17.5104C49.2764 17.2235 49.3778 16.8797 49.3778 16.479C49.3778 15.9299 49.1824 15.4871 48.7916 15.1507C48.4057 14.8143 47.8566 14.6461 47.1442 14.6461H44.7029V18.4083ZM58.4957 27.4613C57.7685 27.4613 57.1204 27.3351 56.5515 27.0828C55.9826 26.8256 55.5325 26.4472 55.201 25.9475C54.8745 25.4429 54.7113 24.8147 54.7113 24.0627C54.7113 23.4295 54.8275 22.8977 55.06 22.4673C55.2925 22.0369 55.6091 21.6906 56.0098 21.4284C56.4105 21.1663 56.8657 20.9684 57.3752 20.8348C57.8897 20.7012 58.4289 20.6072 58.9929 20.5528C59.6558 20.4836 60.19 20.4193 60.5957 20.3599C61.0013 20.2956 61.2957 20.2016 61.4787 20.0779C61.6618 19.9542 61.7533 19.7712 61.7533 19.5288V19.4843C61.7533 19.0143 61.6049 18.6507 61.3081 18.3935C61.0162 18.1362 60.6006 18.0076 60.0614 18.0076C59.4925 18.0076 59.0399 18.1338 58.7035 18.3861C58.3671 18.6334 58.1445 18.9451 58.0356 19.321L55.112 19.0836C55.2604 18.391 55.5522 17.7924 55.9876 17.2878C56.4229 16.7783 56.9844 16.3875 57.672 16.1154C58.3646 15.8384 59.166 15.6998 60.0763 15.6998C60.7095 15.6998 61.3155 15.774 61.8943 15.9225C62.478 16.0709 62.995 16.3009 63.4451 16.6126C63.9003 16.9242 64.2589 17.3249 64.5211 17.8147C64.7833 18.2995 64.9144 18.8808 64.9144 19.5585V27.2461H61.9165V25.6655H61.8275C61.6444 26.0217 61.3996 26.3358 61.0929 26.6079C60.7861 26.8751 60.4176 27.0853 59.9872 27.2387C59.5568 27.3871 59.0597 27.4613 58.4957 27.4613ZM59.401 25.2797C59.866 25.2797 60.2766 25.1882 60.6328 25.0051C60.989 24.8171 61.2685 24.5648 61.4713 24.2482C61.6741 23.9316 61.7755 23.573 61.7755 23.1723V21.9627C61.6766 22.027 61.5406 22.0864 61.3674 22.1408C61.1992 22.1903 61.0088 22.2373 60.796 22.2818C60.5833 22.3214 60.3706 22.3585 60.1579 22.3931C59.9452 22.4228 59.7522 22.45 59.5791 22.4747C59.2081 22.5291 58.884 22.6157 58.607 22.7344C58.33 22.8532 58.1148 23.014 57.9614 23.2168C57.8081 23.4147 57.7314 23.662 57.7314 23.9588C57.7314 24.3892 57.8872 24.7182 58.1989 24.9457C58.5155 25.1684 58.9162 25.2797 59.401 25.2797ZM70.528 12.049V27.2461H67.3669V12.049H70.528ZM76.2213 12.049V27.2461H73.0602V12.049H76.2213ZM83.9479 27.4687C82.7755 27.4687 81.7663 27.2313 80.9204 26.7563C80.0794 26.2765 79.4313 25.5987 78.9762 24.7231C78.5211 23.8426 78.2935 22.8012 78.2935 21.5991C78.2935 20.4267 78.5211 19.3977 78.9762 18.5122C79.4313 17.6267 80.0719 16.9366 80.8981 16.4419C81.7292 15.9472 82.7037 15.6998 83.8218 15.6998C84.5737 15.6998 85.2737 15.821 85.9217 16.0634C86.5748 16.3009 87.1437 16.6596 87.6285 17.1394C88.1182 17.6193 88.4991 18.2228 88.7712 18.95C89.0433 19.6723 89.1793 20.5182 89.1793 21.4878V22.356H79.555V20.397H86.2037C86.2037 19.9419 86.1048 19.5387 85.9069 19.1875C85.709 18.8362 85.4345 18.5617 85.0832 18.3638C84.7369 18.161 84.3338 18.0596 83.8737 18.0596C83.3938 18.0596 82.9684 18.1709 82.5974 18.3935C82.2313 18.6111 81.9444 18.9055 81.7366 19.2765C81.5288 19.6426 81.4225 20.0507 81.4175 20.5009V22.3634C81.4175 22.9274 81.5214 23.4147 81.7292 23.8253C81.9419 24.2359 82.2412 24.5525 82.6271 24.7751C83.0129 24.9977 83.4705 25.109 83.9998 25.109C84.3511 25.109 84.6726 25.0595 84.9645 24.9606C85.2564 24.8616 85.5062 24.7132 85.714 24.5154C85.9217 24.3175 86.0801 24.0751 86.1889 23.7882L89.1126 23.9811C88.9641 24.6836 88.6599 25.297 88.1998 25.8214C87.7447 26.3408 87.156 26.7464 86.4338 27.0383C85.7164 27.3252 84.8878 27.4687 83.9479 27.4687ZM91.2422 27.2461V15.8483H94.3069V17.8369H94.4256C94.6334 17.1295 94.9821 16.5952 95.4719 16.2341C95.9616 15.868 96.5256 15.685 97.1638 15.685C97.3221 15.685 97.4927 15.6949 97.6758 15.7147C97.8588 15.7345 98.0196 15.7617 98.1581 15.7963V18.6012C98.0097 18.5567 97.8044 18.5171 97.5422 18.4825C97.28 18.4479 97.0401 18.4306 96.8224 18.4306C96.3574 18.4306 95.9419 18.532 95.5758 18.7348C95.2147 18.9327 94.9277 19.2097 94.715 19.5659C94.5072 19.9221 94.4033 20.3327 94.4033 20.7977V27.2461H91.2422ZM99.7925 27.2461V15.8483H102.954V27.2461H99.7925ZM101.38 14.379C100.91 14.379 100.507 14.2232 100.171 13.9115C99.8395 13.5949 99.6737 13.2165 99.6737 12.7762C99.6737 12.3408 99.8395 11.9673 100.171 11.6557C100.507 11.3391 100.91 11.1808 101.38 11.1808C101.85 11.1808 102.251 11.3391 102.583 11.6557C102.919 11.9673 103.087 12.3408 103.087 12.7762C103.087 13.2165 102.919 13.5949 102.583 13.9115C102.251 14.2232 101.85 14.379 101.38 14.379ZM108.647 20.6567V27.2461H105.486V15.8483H108.499V17.8592H108.632C108.884 17.1963 109.307 16.6719 109.901 16.2861C110.495 15.8952 111.214 15.6998 112.06 15.6998C112.852 15.6998 113.542 15.873 114.131 16.2193C114.719 16.5656 115.177 17.0603 115.503 17.7034C115.83 18.3415 115.993 19.1034 115.993 19.9889V27.2461H112.832V20.5528C112.837 19.8553 112.659 19.3111 112.298 18.9203C111.937 18.5246 111.44 18.3267 110.806 18.3267C110.381 18.3267 110.005 18.4182 109.678 18.6012C109.357 18.7843 109.105 19.0514 108.921 19.4027C108.743 19.7489 108.652 20.167 108.647 20.6567ZM123.679 27.4687C122.507 27.4687 121.497 27.2313 120.651 26.7563C119.81 26.2765 119.162 25.5987 118.707 24.7231C118.252 23.8426 118.025 22.8012 118.025 21.5991C118.025 20.4267 118.252 19.3977 118.707 18.5122C119.162 17.6267 119.803 16.9366 120.629 16.4419C121.46 15.9472 122.435 15.6998 123.553 15.6998C124.305 15.6998 125.005 15.821 125.653 16.0634C126.306 16.3009 126.875 16.6596 127.36 17.1394C127.849 17.6193 128.23 18.2228 128.502 18.95C128.774 19.6723 128.91 20.5182 128.91 21.4878V22.356H119.286V20.397H125.935C125.935 19.9419 125.836 19.5387 125.638 19.1875C125.44 18.8362 125.166 18.5617 124.814 18.3638C124.468 18.161 124.065 18.0596 123.605 18.0596C123.125 18.0596 122.699 18.1709 122.328 18.3935C121.962 18.6111 121.675 18.9055 121.468 19.2765C121.26 19.6426 121.154 20.0507 121.149 20.5009V22.3634C121.149 22.9274 121.252 23.4147 121.46 23.8253C121.673 24.2359 121.972 24.5525 122.358 24.7751C122.744 24.9977 123.202 25.109 123.731 25.109C124.082 25.109 124.404 25.0595 124.696 24.9606C124.987 24.8616 125.237 24.7132 125.445 24.5154C125.653 24.3175 125.811 24.0751 125.92 23.7882L128.844 23.9811C128.695 24.6836 128.391 25.297 127.931 25.8214C127.476 26.3408 126.887 26.7464 126.165 27.0383C125.447 27.3252 124.619 27.4687 123.679 27.4687Z" fill="#4D4D4D"/>
<path fill-rule="evenodd" clip-rule="evenodd" d="M14.6378 14.9465C14.1931 15.8012 13.6885 16.6459 13.0939 17.426C12.4583 18.26 11.2669 18.4208 10.433 17.7852C9.59899 17.1495 9.4382 15.9582 10.0738 15.1242C10.3271 14.7919 10.5644 14.4348 10.7912 14.0547L10.7891 14.0547C11.6208 12.7162 12.1448 11.4072 12.4652 10.607C12.5058 10.5054 12.5432 10.412 12.5775 10.3278L12.5803 10.328L12.6456 10.1748L12.6456 10.1747C13.1165 9.06923 13.6198 7.88752 14.1761 6.82174C14.9496 5.33971 15.9371 3.84496 17.3695 2.72604C18.8469 1.57187 20.6781 0.910156 22.9524 0.910156C29.834 0.910156 33.7078 7.08543 32.2616 13.0028C31.7603 15.0541 30.6711 16.9969 28.9726 18.6704C30.4671 20.9089 31.2465 23.5819 30.8029 26.6221C30.0382 31.8628 24.8484 34.4697 19.7376 34.8993C14.4788 35.3414 8.27683 33.6704 3.96681 29.3378C3.2273 28.5944 3.23044 27.3923 3.97383 26.6527C4.71723 25.9132 5.91936 25.9164 6.65888 26.6598C10.0496 30.0682 15.083 31.48 19.4195 31.1154C23.9041 30.7384 26.6696 28.6494 27.0455 26.0738C27.3151 24.2257 26.9056 22.5108 25.9423 20.9718C22.5681 22.9543 17.8789 24.194 11.8084 24.194C8.2484 24.194 5.42068 23.5239 3.40608 22.3524C1.38646 21.1779 0.0388751 19.3831 0.00316555 17.2576C-0.0323476 15.1438 1.24157 13.331 3.11364 12.1388C4.92109 10.9878 7.40589 10.3085 10.4123 10.2602C10.738 10.2893 10.7431 10.5843 10.7019 10.7356L10.7022 10.7358C10.3317 11.6204 9.81895 12.7238 9.0553 13.8109C8.83817 14.0656 8.50276 14.1916 8.28123 14.2463C6.91235 14.4738 5.87663 14.8811 5.15329 15.3418C4.03994 16.0507 3.7928 16.7728 3.79987 17.1938C3.80675 17.6031 4.0654 18.3432 5.31498 19.0698C6.56957 19.7994 8.67399 20.3968 11.8084 20.3968C16.9321 20.3968 20.6512 19.4673 23.276 18.1108C23.0405 17.9281 22.7955 17.7496 22.5413 17.5754C20.7781 16.3667 18.6571 15.4345 16.4392 14.8339C17.1133 13.3885 17.6684 12.13 18.0062 11.3311C20.4092 12.0399 22.7116 13.0884 24.6883 14.4434C25.3009 14.8633 25.8888 15.3183 26.4423 15.8072C27.6097 14.5999 28.28 13.3 28.573 12.1013C29.508 8.27543 27.0717 4.7074 22.9524 4.7074C21.4765 4.7074 20.4795 5.11507 19.7071 5.71845C18.8896 6.35709 18.2056 7.30807 17.5424 8.57872C17.272 9.09676 17.0233 9.62936 16.7778 10.1831C16.7592 10.2151 16.7426 10.2487 16.7282 10.284C16.7048 10.3414 16.679 10.4042 16.6507 10.4722C16.5857 10.6212 16.5207 10.7717 16.4554 10.9239L16.4596 10.9249C16.061 11.8576 15.4111 13.317 14.6378 14.9465Z" fill="#1CA0FF"/>
</svg>
