
<svg width="19" height="33" viewBox="0 0 19 33" fill="none" xmlns="http://www.w3.org/2000/svg">
<path fill-rule="evenodd" clip-rule="evenodd" d="M0.088092 13.1234V12.0319L0.199311 10.6973C0.325361 9.18467 0.647698 7.6949 1.1582 6.26549L1.22624 6.07499C2.70558 1.93284 6.92211 -0.571319 11.2671 0.111791L11.4628 0.142556C15.4454 0.768686 18.3798 4.20042 18.3798 8.23194C18.3798 11.4647 16.8812 14.3474 14.5407 16.2233C14.4048 16.3323 14.3832 16.5325 14.4925 16.6682C16.1368 18.7092 16.9495 21.4261 16.4615 24.2588C15.7655 28.2989 12.5504 31.4415 8.49435 32.0372L4.95501 32.5569C4.69638 32.5949 4.43978 32.4762 4.30123 32.2546C1.50004 27.7727 0.0300325 22.5871 0.0624569 17.3019L0 15.2126L0.088092 13.1234ZM10.4371 5.39143L10.6328 5.42219C12.0161 5.63967 13.0353 6.83164 13.0353 8.23194C13.0353 10.9334 10.8453 13.1234 8.14386 13.1234H5.73368C5.56738 13.1234 5.43258 12.9886 5.43258 12.8223V12.2542L5.52534 11.1411C5.61288 10.0905 5.83676 9.05583 6.19133 8.06303L6.25936 7.87254C6.87487 6.14911 8.62925 5.1072 10.4371 5.39143ZM7.09283 18.4679H5.43258C5.43029 18.4679 5.42846 18.4698 5.42856 18.4721C5.55296 21.2772 6.20008 24.0285 7.33021 26.5859C7.38445 26.7086 7.51431 26.7793 7.64709 26.7598L7.71782 26.7494C9.48249 26.4903 10.8901 25.1191 11.1946 23.3515C11.6347 20.7968 9.66548 18.4679 7.09283 18.4679Z" fill="#3F77FF"/>
</svg>
