<svg width="33" height="35" viewBox="0 0 33 35" fill="none" xmlns="http://www.w3.org/2000/svg">
<path fill-rule="evenodd" clip-rule="evenodd" d="M14.6378 14.9465C14.1931 15.8012 13.6885 16.6459 13.0939 17.426C12.4583 18.26 11.2669 18.4208 10.433 17.7852C9.59899 17.1495 9.4382 15.9582 10.0738 15.1242C10.3271 14.7919 10.5644 14.4348 10.7912 14.0547L10.7891 14.0547C11.6208 12.7162 12.1448 11.4072 12.4652 10.607C12.5058 10.5054 12.5432 10.412 12.5775 10.3278L12.5803 10.328L12.6456 10.1748L12.6456 10.1747C13.1165 9.06923 13.6198 7.88752 14.1761 6.82174C14.9496 5.33971 15.9371 3.84496 17.3695 2.72604C18.8469 1.57187 20.6781 0.910156 22.9524 0.910156C29.834 0.910156 33.7078 7.08543 32.2616 13.0028C31.7603 15.0541 30.6711 16.9969 28.9726 18.6704C30.4671 20.9089 31.2465 23.5819 30.8029 26.6221C30.0382 31.8628 24.8484 34.4697 19.7376 34.8993C14.4788 35.3414 8.27683 33.6704 3.96681 29.3378C3.2273 28.5944 3.23044 27.3923 3.97383 26.6527C4.71723 25.9132 5.91936 25.9164 6.65888 26.6598C10.0496 30.0682 15.083 31.48 19.4195 31.1154C23.9041 30.7384 26.6696 28.6494 27.0455 26.0738C27.3151 24.2257 26.9056 22.5108 25.9423 20.9718C22.5681 22.9543 17.8789 24.194 11.8084 24.194C8.2484 24.194 5.42068 23.5239 3.40608 22.3524C1.38646 21.1779 0.0388751 19.3831 0.0031656 17.2576C-0.0323476 15.1438 1.24157 13.331 3.11364 12.1388C4.92109 10.9878 7.40589 10.3085 10.4123 10.2602C10.738 10.2893 10.7431 10.5843 10.7019 10.7356L10.7022 10.7358C10.3317 11.6204 9.81895 12.7238 9.0553 13.8109C8.83817 14.0656 8.50276 14.1916 8.28123 14.2463C6.91235 14.4738 5.87663 14.8811 5.15329 15.3418C4.03994 16.0507 3.7928 16.7728 3.79987 17.1938C3.80675 17.6031 4.0654 18.3432 5.31498 19.0698C6.56957 19.7994 8.67399 20.3968 11.8084 20.3968C16.9321 20.3968 20.6512 19.4673 23.276 18.1108C23.0405 17.9281 22.7955 17.7496 22.5413 17.5754C20.7781 16.3667 18.6571 15.4345 16.4392 14.8339C17.1133 13.3885 17.6684 12.13 18.0062 11.3311C20.4092 12.0399 22.7116 13.0884 24.6883 14.4434C25.3009 14.8633 25.8888 15.3183 26.4423 15.8072C27.6097 14.5999 28.28 13.3 28.573 12.1013C29.508 8.27543 27.0717 4.7074 22.9524 4.7074C21.4765 4.7074 20.4795 5.11507 19.7071 5.71845C18.8896 6.35709 18.2056 7.30807 17.5424 8.57872C17.272 9.09676 17.0233 9.62936 16.7778 10.1831C16.7592 10.2151 16.7426 10.2487 16.7282 10.284C16.7048 10.3414 16.679 10.4042 16.6507 10.4722C16.5857 10.6212 16.5207 10.7717 16.4554 10.9239L16.4596 10.9249C16.061 11.8576 15.4111 13.317 14.6378 14.9465Z" fill="#1CA0FF"/>
</svg>
